<?xml version="1.0" encoding="iso-8859-1"?>
<!-- Generator: Adobe Illustrator 16.0.0, SVG Export Plug-In . SVG Version: 6.00 Build 0)  -->
<!DOCTYPE svg PUBLIC "-//W3C//DTD SVG 1.1//EN" "http://www.w3.org/Graphics/SVG/1.1/DTD/svg11.dtd">
<svg version="1.1" id="Capa_1" xmlns="http://www.w3.org/2000/svg" xmlns:xlink="http://www.w3.org/1999/xlink" x="0px" y="0px"
	 width="419.411px" height="419.411px" viewBox="0 0 419.411 419.411" style="enable-background:new 0 0 419.411 419.411;"
	 xml:space="preserve">
<g>
	<path d="M405.89,154.829l-99.601-11.571c-14.567-1.695-31.571-13.728-37.986-26.902l-46.964-96.324
		c-6.415-13.174-16.843-13.174-23.265,0l-46.961,96.324c-6.412,13.175-23.416,25.207-37.986,26.902l-99.605,11.571
		c-14.563,1.691-17.879,11.377-7.421,21.638l81.984,80.455c10.457,10.268,16.13,30.128,12.691,44.366l-22.374,92.428
		c-3.446,14.227,3.959,19.685,16.529,12.166l91.997-55.01c12.569-7.51,32.969-7.51,45.54,0l91.999,55.01
		c12.579,7.519,19.977,2.068,16.534-12.166l-22.378-92.428c-3.434-14.246,2.24-34.106,12.696-44.366l81.983-80.455
		C423.771,166.213,420.449,156.52,405.89,154.829z M259.695,209.406c-0.846,0.806-2.608,0.806-3.919,0
		c-1.318-0.813-2.328-4.216-3.671-7.191c-0.737-1.625-1.896-3.28-3.711-4.488c-2.484-1.659-8.7-3.25-14.56-5.442v58.859
		c0,0.673-0.076,1.339-0.191,2c-0.253,14.903-13.133,28.877-31.351,32.748c-20.616,4.381-40.249-5.822-43.845-22.798
		c-3.603-16.951,10.189-34.252,30.803-38.64c7.521-1.595,14.899-1.227,21.434,0.678v-65.315c0-6.39,5.182-11.58,11.581-11.58
		c6.388,0,11.578,5.182,11.578,11.58v6.907c2.239,1.146,4.837,2.292,7.79,3.32c11.305,3.926,18.903,13.145,19.608,22.831
		c0.2,2.905,0.292,5.424,0.309,7.528C261.571,204.569,260.552,208.592,259.695,209.406z"/>
</g>
<g>
</g>
<g>
</g>
<g>
</g>
<g>
</g>
<g>
</g>
<g>
</g>
<g>
</g>
<g>
</g>
<g>
</g>
<g>
</g>
<g>
</g>
<g>
</g>
<g>
</g>
<g>
</g>
<g>
</g>
</svg>
